HIERARCHY
ROOT Hips
{
	OFFSET 62.853199 -12.980113 80.501701
	CHANNELS 6 Xposition Yposition Zposition Xrotation Yrotation Zrotation
	JOINT spine
	{
		OFFSET 0.000000 -0.393701 6.846367
		CHANNELS 3 Xrotation Yrotation Zrotation
		JOINT spine1
		{
			OFFSET 0.000000 -0.000002 9.496208
			CHANNELS 3 Xrotation Yrotation Zrotation
			JOINT spine2
			{
				OFFSET 0.000000 -0.000001 9.099091
				CHANNELS 3 Xrotation Yrotation Zrotation
				JOINT Neck
				{
					OFFSET 0.000000 -1.113784 23.361198
					CHANNELS 3 Xrotation Yrotation Zrotation
					JOINT Head
					{
						OFFSET 0.000000 -0.000001 7.058014
						CHANNELS 3 Xrotation Yrotation Zrotation
						End Site
						{
							OFFSET 0.000000 5.634187 17.084396
						}
					}
				}
				JOINT RightShoulder
				{
					OFFSET -3.831360 0.533489 9.826309
					CHANNELS 3 Xrotation Yrotation Zrotation
					JOINT RightArm
					{
						OFFSET 0.000000 -0.000002 12.888100
						CHANNELS 3 Xrotation Yrotation Zrotation
						JOINT RightArmRoll
						{
							OFFSET 0.000000 -0.000001 6.506165
							CHANNELS 3 Xrotation Yrotation Zrotation
							JOINT RightForeArm
							{
								OFFSET 0.000000 -0.000003 18.950104
								CHANNELS 3 Xrotation Yrotation Zrotation
								JOINT RightForeArmRoll
								{
									OFFSET 0.000000 -0.000002 7.300919
									CHANNELS 3 Xrotation Yrotation Zrotation
									JOINT RightHand
									{
										OFFSET 0.000000 -0.000002 14.651398
										CHANNELS 3 Xrotation Yrotation Zrotation
										End Site
										{
											OFFSET 0.000000 0.000000 0.100006
										}
									}
								}
							}
						}
					}
				}
				JOINT LeftShoulder
				{
					OFFSET 3.831364 0.533489 9.826309
					CHANNELS 3 Xrotation Yrotation Zrotation
					JOINT LeftArm
					{
						OFFSET 0.000000 -0.000002 12.888100
						CHANNELS 3 Xrotation Yrotation Zrotation
						JOINT LeftArmRoll
						{
							OFFSET 0.000000 -0.000001 6.506165
							CHANNELS 3 Xrotation Yrotation Zrotation
							JOINT LeftForeArm
							{
								OFFSET 0.000000 -0.000003 18.950104
								CHANNELS 3 Xrotation Yrotation Zrotation
								JOINT LeftForeArmRoll
								{
									OFFSET 0.000000 -0.000002 7.300919
									CHANNELS 3 Xrotation Yrotation Zrotation
									JOINT LeftHand
									{
										OFFSET 0.000000 -0.000002 14.651398
										CHANNELS 3 Xrotation Yrotation Zrotation
										End Site
										{
											OFFSET 0.000000 0.000000 0.100006
										}
									}
								}
							}
						}
					}
				}
			}
		}
	}
	JOINT RightUpLeg
	{
		OFFSET -6.068371 0.933477 -1.112778
		CHANNELS 3 Xrotation Yrotation Zrotation
		JOINT RightUpLegRoll
		{
			OFFSET 0.000000 -0.000002 17.179604
			CHANNELS 3 Xrotation Yrotation Zrotation
			JOINT RightLeg
			{
				OFFSET 0.000000 0.000003 -21.274300
				CHANNELS 3 Xrotation Yrotation Zrotation
				JOINT RightLegRoll
				{
					OFFSET 0.000000 -0.000004 21.343903
					CHANNELS 3 Xrotation Yrotation Zrotation
					JOINT RightFoot
					{
						OFFSET 0.000000 -0.000003 17.765198
						CHANNELS 3 Xrotation Yrotation Zrotation
						JOINT RightToeBase
						{
							OFFSET 0.000000 -0.000002 14.850792
							CHANNELS 3 Xrotation Yrotation Zrotation
							End Site
							{
								OFFSET 0.006294 0.829004 7.192123
							}
						}
					}
				}
			}
		}
	}
	JOINT LeftUpLeg
	{
		OFFSET 6.068371 0.933477 -1.112778
		CHANNELS 3 Xrotation Yrotation Zrotation
		JOINT LeftUpLegRoll
		{
			OFFSET 0.000000 -0.000002 17.179703
			CHANNELS 3 Xrotation Yrotation Zrotation
			JOINT LeftLeg
			{
				OFFSET 0.000000 -0.000004 21.274200
				CHANNELS 3 Xrotation Yrotation Zrotation
				JOINT LeftLegRoll
				{
					OFFSET 0.000000 -0.000004 21.541206
					CHANNELS 3 Xrotation Yrotation Zrotation
					JOINT LeftFoot
					{
						OFFSET 0.000000 -0.000003 17.567902
						CHANNELS 3 Xrotation Yrotation Zrotation
						JOINT LeftToeBase
						{
							OFFSET 0.000000 -0.000002 14.850800
							CHANNELS 3 Xrotation Yrotation Zrotation
							End Site
							{
								OFFSET -0.028214 0.829003 7.192139
							}
						}
					}
				}
			}
		}
	}
}
MOTION
Frames: 9
Frame Time: 0.041667
53.188004 -9.501600 86.286392 1.322814 1.208946 20.062381 -2.800000 -0.001712 0.566889 -1.595300 -0.025672 1.133443 0.049565 -0.012098 1.133659 -23.035178 -47.400908 8.432252 32.653748 49.405678 9.398438 -20.171642 -72.027487 -23.795440 -165.297108 -173.748538 -71.432318 0.000004 -0.000002 -0.000002 101.514745 -9.761607 19.155580 -0.000007 0.000009 -3.000000 -4.999740 -8.000066 -0.000018 -28.193660 1.407221 39.801326 111.911803 65.206744 -140.299708 -0.000002 0.000004 0.000007 25.392816 2.823063 -0.795209 0.000013 -0.000007 2.999991 -5.000015 8.000052 0.000005 -11.096678 -157.109049 12.952393 -179.999991 0.000004 -1.180006 146.751163 -6.081279 -2.951027 0.000001 -0.000001 0.525557 68.988032 7.020292 1.783069 29.670332 -6.965445 5.595629 -27.806375 163.666209 0.033979 -0.000004 -0.000002 -1.356478 -27.192030 -0.899647 0.725233 0.000001 -0.000003 -0.261721 66.264357 -7.201318 -1.559339 25.456953 7.355617 -0.000009 
53.277908 -9.559509 86.301292 1.193771 1.314574 20.560109 -2.802449 0.065303 0.544632 -1.600863 0.109188 1.091579 0.044012 0.122250 1.090184 -23.266134 -47.886398 8.044240 32.864514 49.581965 9.154152 -19.973206 -72.769614 -23.563652 -165.280701 -174.269859 -71.771512 0.000004 0.000002 -0.000004 102.109450 -9.801496 19.206161 -0.000010 0.000009 -3.000001 -4.999746 -8.000064 -0.000016 -28.268283 0.944656 40.029341 112.689959 65.171787 -141.066356 -0.000003 0.000005 0.000007 25.392289 2.813520 -0.788640 0.000013 -0.000006 2.999989 -5.000014 8.000054 0.000003 -10.665942 -157.274968 12.961419 -179.999991 0.000004 -1.183995 146.841294 -6.026089 -2.924760 0.000000 -0.000000 0.523172 69.010059 7.020394 1.779690 29.767269 -6.947934 5.713469 -27.887509 163.710277 0.118843 -0.000007 -0.000003 -1.355617 -27.228124 -0.958029 0.711471 0.000002 -0.000003 -0.258883 66.271577 -7.204933 -1.550029 25.456955 7.355613 -0.000007 
53.432404 -9.649391 86.326691 1.066396 1.419442 21.062480 -2.804961 0.131200 0.523332 -1.606584 0.241778 1.051582 0.038315 0.254350 1.048597 -23.510665 -48.336071 7.650993 33.068118 49.729467 8.912509 -19.785304 -73.481477 -23.341755 -165.234229 -174.782546 -72.117994 0.000004 0.000000 -0.000003 102.685160 -9.830333 19.238314 -0.000007 0.000010 -3.000001 -4.999746 -8.000063 -0.000018 -28.346323 0.511012 40.257582 113.408359 65.135614 -141.767365 -0.000002 0.000005 0.000006 25.383638 2.807887 -0.783069 0.000013 -0.000007 2.999994 -5.000014 8.000056 0.000002 -10.234198 -157.444371 12.970300 -179.999991 0.000006 -1.187997 146.936535 -5.974486 -2.900322 -0.000001 -0.000001 0.520712 69.031445 7.020490 1.776653 29.860081 -6.930783 5.826202 -27.971354 163.756558 0.206276 -0.000003 -0.000005 -1.354570 -27.262552 -1.016798 0.697555 0.000002 -0.000002 -0.255988 66.279309 -7.208484 -1.540869 25.456957 7.355619 -0.000010 
53.518005 -9.703085 86.333092 0.940833 1.524403 21.570765 -2.807775 0.194876 0.503563 -1.612963 0.369867 1.014565 0.031972 0.381987 1.010059 -23.765382 -48.734814 7.256306 33.257899 49.838856 8.676383 -19.618933 -74.147844 -23.142453 -165.152062 -175.278732 -72.466975 0.000004 -0.000002 -0.000001 103.237852 -9.846766 19.250384 -0.000008 0.000007 -3.000005 -4.999745 -8.000064 -0.000022 -28.427966 0.119431 40.483559 114.049665 65.104113 -142.385743 -0.000003 0.000004 0.000008 25.366204 2.807071 -0.778815 0.000013 -0.000007 2.999989 -5.000017 8.000051 0.000005 -9.800064 -157.617093 12.979684 -179.999991 0.000005 -1.191999 147.038537 -5.926569 -2.876534 0.000001 -0.000000 0.518164 69.051792 7.020592 1.773778 29.948877 -6.913993 5.934088 -28.058559 163.805982 0.296595 -0.000006 -0.000003 -1.353289 -27.295523 -1.076645 0.683319 0.000001 -0.000003 -0.252998 66.287758 -7.211966 -1.531747 25.456957 7.355612 -0.000010 
53.654907 -9.782413 86.339294 0.817208 1.630312 22.086048 -2.811178 0.255228 0.485895 -1.620489 0.491227 0.981629 0.024480 0.502944 0.975663 -24.025949 -49.067533 6.865079 33.427062 49.900945 8.449174 -19.487078 -74.753524 -22.980684 -165.028777 -175.750371 -72.815793 0.000002 0.000001 -0.000002 103.763892 -9.849294 19.244635 -0.000007 0.000007 -3.000002 -4.999742 -8.000066 -0.000020 -28.513424 -0.216897 40.705271 114.596122 65.083500 -142.903772 -0.000001 0.000004 0.000008 25.339578 2.811962 -0.776143 0.000012 -0.000008 2.999989 -5.000015 8.000053 -0.000001 -9.362281 -157.793148 12.990286 -179.999991 0.000008 -1.197000 147.149049 -5.883292 -2.853741 0.000000 -0.000001 0.515515 69.070746 7.020646 1.771189 30.033663 -6.897614 6.037373 -28.150012 163.857809 0.391076 -0.000006 -0.000004 -1.351751 -27.326948 -1.138268 0.668578 0.000001 -0.000002 -0.249860 66.296712 -7.215385 -1.522779 25.456952 7.355619 -0.000011 
53.755104 -9.849962 86.359299 0.695670 1.738012 22.609400 -2.815392 0.311156 0.470908 -1.629671 0.603632 0.953886 0.015332 0.615007 0.946576 -24.287992 -49.319358 6.482273 33.568809 49.906362 8.233936 -19.405158 -75.283588 -22.873926 -164.858623 -176.189320 -73.163723 0.000004 -0.000001 -0.000001 104.259184 -9.836784 19.216379 -0.000006 0.000008 -2.999998 -4.999741 -8.000062 -0.000015 -28.603015 -0.484722 40.920596 115.030248 65.080167 -143.304363 -0.000001 0.000005 0.000005 25.303184 2.823455 -0.775359 0.000013 -0.000006 2.999989 -5.000014 8.000053 0.000001 -8.919374 -157.975404 13.003292 -179.999991 0.000009 -1.201002 147.269916 -5.845615 -2.831302 0.000002 -0.000000 0.512754 69.087691 7.020739 1.769130 30.114328 -6.881643 6.136274 -28.246273 163.913011 0.489985 -0.000006 -0.000003 -1.349918 -27.356928 -1.202378 0.653145 0.000001 -0.000003 -0.246518 66.306281 -7.218753 -1.513858 25.456957 7.355613 -0.000008 
53.878902 -9.921757 86.385384 0.576358 1.848356 23.141910 -2.820686 0.361556 0.459168 -1.641004 0.704850 0.932449 0.004030 0.715961 0.923928 -24.546399 -49.475227 6.113809 33.676558 49.845901 8.033892 -19.389225 -75.722838 -22.840446 -164.635973 -176.587342 -73.506947 0.000002 0.000000 -0.000002 104.720010 -9.807864 19.165905 -0.000007 0.000008 -3.000000 -4.999741 -8.000067 -0.000023 -28.697347 -0.670760 41.127725 115.338713 65.099769 -143.574756 -0.000004 0.000004 0.000006 25.256561 2.842459 -0.776743 0.000013 -0.000007 2.999989 -5.000014 8.000054 -0.000002 -8.470228 -158.161841 13.018877 -179.999991 0.000009 -1.206001 147.402804 -5.814485 -2.809558 -0.000000 -0.000000 0.509865 69.102424 7.020818 1.767410 30.190976 -6.866106 6.231069 -28.348212 163.970808 0.594617 -0.000006 -0.000004 -1.347766 -27.385585 -1.269657 0.636848 0.000001 -0.000005 -0.242935 66.316567 -7.222050 -1.505076 25.456959 7.355614 -0.000008 
53.986206 -9.988159 86.395103 0.459416 1.962175 23.684668 -2.827312 0.405327 0.451262 -1.654989 0.792651 0.918426 -0.009932 0.803588 0.908855 -24.795810 -49.520200 5.765963 33.743884 49.710288 7.851902 -19.455755 -76.056267 -22.898896 -164.355156 -176.936064 -73.846421 0.000003 -0.000001 -0.000003 105.142443 -9.760892 19.092481 -0.000005 0.000006 -3.000003 -4.999741 -8.000067 -0.000019 -28.797078 -0.761726 41.324806 115.501422 65.148687 -143.694954 -0.000001 0.000003 0.000007 25.199016 2.869879 -0.780541 0.000013 -0.000007 2.999988 -5.000015 8.000051 0.000002 -8.013411 -158.355450 13.038218 -179.999991 0.000010 -1.211998 147.549366 -5.792569 -2.788953 0.000000 0.000001 0.506840 69.114507 7.020874 1.766253 30.263530 -6.851023 6.321974 -28.456520 164.031282 0.705739 -0.000004 -0.000003 -1.345258 -27.413138 -1.340812 0.619496 0.000002 -0.000003 -0.239057 66.327462 -7.225292 -1.496337 25.456957 7.355618 -0.000008 
54.120708 -10.055208 86.412483 0.344857 2.078012 24.238294 -2.834937 0.443884 0.446683 -1.671012 0.869888 0.910876 -0.025933 0.880730 0.900377 -25.050494 -49.468786 5.430920 33.783591 49.505614 7.683564 -19.617005 -76.302154 -23.062012 -164.018660 -177.240008 -74.209917 0.000003 -0.000001 -0.000002 105.539769 -9.694832 18.990936 -0.000002 0.000009 -2.999997 -4.999742 -8.000064 -0.000018 -28.905285 -0.774039 41.520034 115.529276 65.216654 -143.673931 -0.000003 0.000004 0.000007 25.112024 2.905360 -0.787023 0.000011 -0.000009 2.999990 -5.000014 8.000053 0.000001 -7.547463 -158.552227 13.062040 -179.999991 0.000006 -1.216998 147.709671 -5.779009 -2.770881 -0.000001 -0.000001 0.503655 69.123652 7.020993 1.765598 30.332764 -6.836287 6.409199 -28.570126 164.096073 0.823363 -0.000005 -0.000001 -1.342365 -27.438277 -1.415580 0.601145 0.000001 -0.000004 -0.234882 66.339210 -7.228551 -1.487651 25.456959 7.355615 -0.000011 
